<svg width="22" height="22" viewBox="0 0 22 22" fill="none" xmlns="http://www.w3.org/2000/svg">
<path d="M13.1541 1.83334H8.84578C7.89245 1.83334 7.11328 2.60334 7.11328 3.55668V4.41834C7.11328 5.37168 7.88328 6.14168 8.83661 6.14168H13.1541C14.1074 6.14168 14.8774 5.37168 14.8774 4.41834V3.55668C14.8866 2.60334 14.1074 1.83334 13.1541 1.83334Z" fill="#298091"/>
<path d="M15.8034 4.41835C15.8034 5.87585 14.6117 7.06751 13.1542 7.06751H8.84587C7.38837 7.06751 6.1967 5.87585 6.1967 4.41835C6.1967 3.90501 5.6467 3.58418 5.18837 3.82251C3.89587 4.51001 3.01587 5.87584 3.01587 7.44334V16.0692C3.01587 18.3242 4.85837 20.1667 7.11337 20.1667H14.8867C17.1417 20.1667 18.9842 18.3242 18.9842 16.0692V7.44334C18.9842 5.87584 18.1042 4.51001 16.8117 3.82251C16.3534 3.58418 15.8034 3.90501 15.8034 4.41835ZM14.0617 11.6692L10.395 15.3358C10.2575 15.4733 10.0834 15.5375 9.9092 15.5375C9.73504 15.5375 9.56087 15.4733 9.42337 15.3358L8.04837 13.9608C7.78254 13.695 7.78254 13.255 8.04837 12.9892C8.3142 12.7233 8.7542 12.7233 9.02004 12.9892L9.9092 13.8783L13.09 10.6975C13.3559 10.4317 13.7959 10.4317 14.0617 10.6975C14.3275 10.9633 14.3275 11.4033 14.0617 11.6692Z" fill="#298091"/>
</svg>
