<svg width="95" height="95" viewBox="0 0 95 95" fill="none" xmlns="http://www.w3.org/2000/svg">
<g opacity="0.1">
<path d="M43.8709 63.8923C41.9682 65.1636 40.0239 65.4128 38.1378 63.9505C36.26 62.4964 36.0855 60.5189 36.8084 58.0844C34.349 58.6162 32.1305 58.5996 30.6682 56.4061C29.4218 54.5283 29.7209 52.6837 30.9506 50.9139C31.1002 50.7643 31.2581 50.6148 31.4077 50.4652C32.2884 49.8338 33.3104 49.2189 34.3323 49.4266C36.2018 49.8005 35.8612 48.9364 35.9609 47.6153C36.1021 45.7957 35.9027 45.0479 33.8671 45.3387C33.1276 45.4467 32.2718 44.782 31.4658 44.4746C31.2498 44.2585 31.0337 44.0425 30.8177 43.8265C29.7376 42.0152 29.4052 40.1623 30.718 38.3343C32.1721 36.2987 34.2327 36.1242 36.7586 36.8055C36.1188 34.3129 36.2102 32.1276 38.4037 30.6819C40.2732 29.4439 42.1177 29.7596 43.8792 30.981C44.0288 31.1306 44.1783 31.2884 44.3279 31.438C44.6852 32.3187 45.4662 33.2742 45.3332 34.0802C44.9677 36.2405 45.998 35.85 47.4936 35.9746C49.2966 36.1242 49.4461 35.634 49.3963 34.0968C49.3714 33.2244 50.0527 32.3353 50.4183 31.4546C50.5762 31.2884 50.734 31.1306 50.8919 30.9644C52.778 29.635 54.7222 29.4106 56.6167 30.8564C58.5028 32.2938 58.7271 34.263 57.996 36.6809C60.3972 36.2654 62.6406 36.1657 64.1029 38.3759C65.3493 40.2537 65.0667 42.0899 63.8786 43.8847C63.6958 44.0675 63.513 44.2419 63.3302 44.4247C62.4329 44.7737 61.4939 45.4966 60.6547 45.3969C58.8268 45.1891 58.8434 45.8372 58.8684 47.391C58.8933 48.8949 58.8019 49.6177 60.6547 49.41C61.5022 49.3186 62.4329 50.0415 63.3302 50.3904C63.513 50.5732 63.7041 50.7561 63.8869 50.9472C65.1498 52.8333 65.3991 54.7775 63.9451 56.6553C62.5076 58.5165 60.5634 58.8157 58.1289 58.018C58.6274 60.5273 58.5443 62.8205 56.2179 64.2662C54.4398 65.3713 52.67 65.0722 50.975 63.9837C50.7423 63.7511 50.518 63.5267 50.2853 63.2941C49.388 61.9647 49.1553 60.4857 49.4046 58.9403C46.8538 58.6495 44.735 58.7242 44.9926 62.1059C45.0258 62.5131 44.5772 62.9534 44.3445 63.3772C44.2033 63.5517 44.0371 63.7261 43.8709 63.8923ZM56.0932 56.1069C54.6308 55.2179 57.7051 52.4261 54.4398 52.4178C52.7697 52.4095 52.3874 52.9828 52.3958 54.52C52.4207 57.7521 55.1709 54.6944 56.0932 56.1069ZM38.7693 56.1485C39.6666 54.9188 42.932 57.8269 42.367 53.8469C41.9184 50.6813 39.8993 53.174 38.7942 52.3597C39.2429 53.6725 38.761 54.7776 38.7693 56.1485ZM56.2012 38.7747C52.3376 39.1735 52.429 39.1902 52.321 40.0875C51.9388 43.2033 54.2902 42.1398 56.1265 42.63C55.5781 41.1843 56.0018 40.0044 56.2012 38.7747ZM38.7361 38.6085C38.9521 40.0127 39.085 41.2258 38.869 42.5802C39.9325 41.6246 42.0679 43.9844 42.4335 40.8436C42.8738 36.9634 39.6002 40.046 38.7361 38.6085ZM45.9066 47.1749C45.973 48.0058 45.3499 49.1774 47.0366 48.8533C47.8924 48.6872 48.9975 49.2937 48.8479 47.5156C48.7482 46.3108 48.6901 45.8372 47.3025 45.9286C46.2639 45.9868 45.516 45.8871 45.9066 47.1749Z" fill="white"/>
<path d="M44.336 31.4463C44.1864 31.2967 44.0369 31.1389 43.8873 30.9893C43.8624 30.7982 43.8873 30.5822 43.8125 30.416C42.8321 28.2474 42.7989 26.1951 44.8096 24.6164C46.4465 23.3286 48.291 23.3202 49.9445 24.5998C51.9718 26.1702 51.9386 28.2225 50.9831 30.3911C50.9083 30.5656 50.9249 30.7733 50.9 30.9644C50.7421 31.1306 50.5842 31.2884 50.4263 31.4546C48.3907 32.2772 46.3634 32.2523 44.336 31.4463Z" fill="white"/>
<path d="M63.9033 50.9474C63.7205 50.7646 63.5294 50.5817 63.3466 50.3906C62.4908 48.4048 62.5074 46.4107 63.3466 44.4249C63.5294 44.2421 63.7121 44.0676 63.8949 43.8848C64.543 43.6854 65.1745 43.4362 65.8392 43.3032C67.717 42.9459 69.3372 43.4029 70.4174 45.073C71.4061 46.6018 71.4061 48.2054 70.4257 49.7343C69.3538 51.4126 67.7336 51.8696 65.8558 51.5124C65.1828 51.396 64.5513 51.1468 63.9033 50.9474Z" fill="white"/>
<path d="M50.31 63.2942C50.5427 63.5268 50.767 63.7595 50.9996 63.9838C51.1242 64.4491 51.2489 64.9144 51.3735 65.388C51.897 67.3739 51.5812 69.1436 49.8198 70.365C48.1995 71.4867 46.463 71.4618 44.8677 70.2985C43.1394 69.0356 42.8653 67.2575 43.4386 65.2883C43.5715 64.823 43.7211 64.3577 43.8623 63.8924C44.0285 63.7179 44.1947 63.5517 44.3692 63.3773C46.3384 62.5464 48.3159 62.5713 50.31 63.2942Z" fill="white"/>
<path d="M31.4157 50.4737C31.2661 50.6233 31.1083 50.7728 30.9587 50.9224C28.5824 51.6785 26.1978 52.3598 24.428 49.8007C23.3977 48.3134 23.3727 46.6848 24.3615 45.156C26.0482 42.5387 28.4412 43.1204 30.8424 43.8433C31.0585 44.0593 31.2745 44.2753 31.4905 44.4913C32.2632 46.4854 32.1884 48.4796 31.4157 50.4737Z" fill="white"/>
<path d="M70.9495 60.3363C70.9993 62.5382 69.0135 64.524 66.8117 64.4824C64.7262 64.4409 62.8567 62.5797 62.8151 60.4942C62.7653 58.2841 64.7428 56.3066 66.9529 56.3564C69.0384 56.3897 70.8996 58.2425 70.9495 60.3363Z" fill="white"/>
<path d="M27.9262 64.4409C25.7493 64.4658 23.7884 62.4717 23.8632 60.3031C23.9296 58.2259 25.7825 56.4062 27.8597 56.3813C30.0366 56.3563 31.9892 58.3505 31.9227 60.5191C31.8563 62.5963 30.0034 64.4242 27.9262 64.4409Z" fill="white"/>
<path d="M38.4367 66.7674C38.5198 68.9443 36.5838 70.955 34.3903 70.955C32.3214 70.955 30.4353 69.1354 30.3522 67.0582C30.2691 64.8813 32.2134 62.8705 34.3986 62.8705C36.4675 62.8705 38.3536 64.6818 38.4367 66.7674Z" fill="white"/>
<path d="M66.6539 38.4758C64.4521 38.3345 62.6241 36.2158 62.8401 34.0555C63.0562 31.9616 65.042 30.2417 67.1026 30.3747C69.3044 30.5159 71.1407 32.6347 70.9164 34.795C70.7003 36.8888 68.7145 38.6004 66.6539 38.4758Z" fill="white"/>
<path d="M27.7516 30.3912C29.8039 30.3081 31.7481 32.053 31.9143 34.1385C32.0888 36.2905 30.2276 38.3677 28.0341 38.4591C25.8655 38.5422 23.863 36.6062 23.863 34.421C23.863 32.3521 25.6744 30.4743 27.7516 30.3912Z" fill="white"/>
<path d="M64.4351 27.94C64.4268 30.1419 62.4078 32.0778 60.2142 31.9781C58.1204 31.8784 56.3174 29.9923 56.3257 27.9068C56.334 25.7049 58.3614 23.769 60.5466 23.8687C62.6404 23.9684 64.4435 25.8628 64.4351 27.94Z" fill="white"/>
<path d="M34.407 23.8936C36.5923 23.9019 38.5199 25.921 38.4202 28.0896C38.3205 30.1668 36.4427 31.9698 34.3738 31.9532C32.1886 31.9449 30.2609 29.9259 30.3606 27.7573C30.4603 25.6801 32.3464 23.8853 34.407 23.8936Z" fill="white"/>
<path d="M64.435 66.8586C64.4683 69.0521 62.4742 71.0213 60.2806 70.9631C58.1951 70.905 56.3505 69.0438 56.3256 66.9583C56.2924 64.7564 58.2782 62.7955 60.48 62.8537C62.5739 62.9119 64.4101 64.7731 64.435 66.8586Z" fill="white"/>
<path d="M37.1321 73.1734C37.4561 70.8885 38.7523 69.6588 41.0539 69.6837C43.2557 69.7086 44.8676 71.5781 44.5851 73.7883C44.2943 76.0981 42.8486 77.2613 40.572 77.0952C38.2455 76.9373 37.1986 75.4251 37.1321 73.1734Z" fill="white"/>
<path d="M73.3757 57.694C71.0908 57.4946 69.753 56.298 69.6367 53.9799C69.5287 51.7697 71.3234 50.0083 73.5336 50.1745C75.8434 50.349 77.1479 51.695 77.1064 53.9965C77.0649 56.3147 75.6523 57.5029 73.3757 57.694Z" fill="white"/>
<path d="M25.126 53.872C24.9515 56.1652 23.7882 57.5694 21.4368 57.586C19.1104 57.6026 17.7477 56.2899 17.7228 53.9551C17.6978 51.6286 19.0189 50.2743 21.3537 50.2327C23.6968 50.2078 24.9016 51.5787 25.126 53.872Z" fill="white"/>
<path d="M57.6633 73.3645C57.4971 75.6328 56.3339 77.062 54.0074 77.1285C51.7058 77.1949 50.3349 75.907 50.1355 73.6055C49.9444 71.3953 51.681 69.584 53.8994 69.6588C56.2259 69.7502 57.4306 71.0713 57.6633 73.3645Z" fill="white"/>
<path d="M73.3174 44.699C71.0241 44.458 69.7113 43.2366 69.6365 40.9185C69.5701 38.7083 71.398 36.9801 73.6082 37.1795C75.918 37.3955 77.1893 38.7748 77.1145 41.068C77.0231 43.3862 75.5774 44.5411 73.3174 44.699Z" fill="white"/>
<path d="M21.5447 37.1877C23.8296 37.4702 25.159 38.7332 25.0676 41.0597C24.9762 43.3945 23.5637 44.6657 21.2539 44.5909C18.9191 44.5078 17.6478 43.0953 17.7226 40.7772C17.7974 38.4258 19.2515 37.3124 21.5447 37.1877Z" fill="white"/>
<path d="M44.6433 21.3345C44.4024 23.7773 43.181 25.1483 40.8379 25.1067C38.5031 25.0652 37.1737 23.6942 37.1986 21.3677C37.2318 19.0329 38.6028 17.7118 40.9376 17.7285C43.3139 17.7451 44.4273 19.2074 44.6433 21.3345Z" fill="white"/>
<path d="M57.6469 21.4676C57.4309 23.7525 56.2261 25.0653 53.9079 25.1484C51.6978 25.2232 49.9862 23.4451 50.1607 21.2349C50.3518 18.9334 51.7061 17.6621 53.9994 17.7203C56.3258 17.7784 57.4807 19.1992 57.6469 21.4676Z" fill="white"/>
<path d="M27.9926 76.8292C25.9486 76.5966 24.586 75.5248 24.5444 73.4808C24.5029 71.4368 25.7908 70.1157 27.8181 70.0659C29.8621 70.016 31.1832 71.3039 31.2414 73.3396C31.2995 75.3835 29.9618 76.4886 27.9926 76.8292Z" fill="white"/>
<path d="M47.4435 83.3434C45.4328 83.1108 44.0618 82.0306 44.0203 79.9783C43.9787 77.9261 45.2749 76.5883 47.3105 76.5385C49.3628 76.4886 50.6922 77.7848 50.7504 79.8288C50.8086 81.8977 49.4709 83.0111 47.4435 83.3434Z" fill="white"/>
<path d="M80.1138 43.9928C81.9334 44.2836 83.1714 45.3804 83.2794 47.4243C83.3791 49.2689 81.4681 51.0719 79.6568 50.8226C77.6627 50.5484 76.4911 49.3104 76.4662 47.2665C76.4496 45.5216 78.2194 43.9429 80.1138 43.9928Z" fill="white"/>
<path d="M18.3129 47.391C17.9805 49.4931 16.8671 50.806 14.8232 50.7478C12.7958 50.6896 11.5163 49.3685 11.5661 47.3411C11.616 45.3138 12.937 44.0425 14.9727 44.0841C17.025 44.1256 18.047 45.5132 18.3129 47.391Z" fill="white"/>
<path d="M47.3356 11.5135C49.3381 11.7462 50.6924 12.818 50.7339 14.8703C50.7672 16.9143 49.4876 18.2354 47.452 18.2769C45.408 18.3185 44.0869 17.0306 44.037 14.9949C43.9871 12.9426 45.3166 11.8292 47.3356 11.5135Z" fill="white"/>
<path d="M31.2912 21.3762C31.0668 23.362 30.0033 24.7163 27.9676 24.7579C25.9319 24.7994 24.6108 23.5199 24.5693 21.5008C24.5194 19.4735 25.799 18.1524 27.8264 18.0942C29.862 18.0443 30.9754 19.3571 31.2912 21.3762Z" fill="white"/>
<path d="M70.3178 73.4725C69.9854 75.4998 68.8638 76.8375 66.8032 76.7794C64.7675 76.7212 63.463 75.3918 63.5129 73.3395C63.5627 71.3039 64.9004 70.0077 66.9527 70.0492C69.0133 70.0908 70.0852 71.4617 70.3178 73.4725Z" fill="white"/>
<path d="M66.8281 17.9861C68.8388 18.2271 70.2098 19.2989 70.2513 21.3512C70.2929 23.4035 68.9967 24.7412 66.9527 24.7828C64.9004 24.8326 63.571 23.5281 63.5128 21.4925C63.463 19.4319 64.8007 18.3185 66.8281 17.9861Z" fill="white"/>
<path d="M21.362 63.502C23.4641 63.826 24.7769 64.9394 24.727 66.9834C24.6772 69.0107 23.3561 70.2903 21.3287 70.2404C19.3097 70.1989 18.0301 68.8778 18.0634 66.8422C18.0966 64.7899 19.4842 63.7679 21.362 63.502Z" fill="white"/>
<path d="M73.4254 31.3632C71.4146 31.1223 70.0519 30.0421 70.0104 27.9899C69.9772 25.9376 71.2734 24.6082 73.309 24.5583C75.3613 24.5168 76.6907 25.8129 76.7406 27.8569C76.7904 29.9175 75.4527 31.0392 73.4254 31.3632Z" fill="white"/>
<path d="M24.8021 27.8238C24.5695 29.8595 23.506 31.2138 21.4703 31.2553C19.4346 31.2969 18.1135 30.0173 18.072 27.9983C18.0221 25.9626 19.31 24.6498 21.3291 24.5999C23.373 24.5418 24.4698 25.8712 24.8021 27.8238Z" fill="white"/>
<path d="M76.8318 66.9833C76.5077 68.9774 75.411 70.2155 73.367 70.3152C71.5141 70.4066 69.7277 68.4955 69.977 66.6759C70.2595 64.6818 71.5058 63.4189 73.5415 63.5269C75.5522 63.6266 76.6157 64.9892 76.8318 66.9833Z" fill="white"/>
<path d="M79.9728 31.2969C81.9669 31.5046 83.0554 32.6014 82.9557 34.5955C82.8559 36.6146 81.593 37.6199 79.6238 37.5036C77.7709 37.3956 76.7573 36.2407 76.7822 34.3961C76.8154 32.3688 78.0036 31.3966 79.9728 31.2969Z" fill="white"/>
<path d="M79.9642 63.5683C77.887 63.3772 76.7487 62.3469 76.7736 60.3694C76.8068 58.3919 77.9534 57.2868 79.9226 57.3118C81.9001 57.3367 82.9886 58.4916 82.9803 60.4608C82.972 62.4633 81.7506 63.3938 79.9642 63.5683Z" fill="white"/>
<path d="M14.773 63.5018C12.8121 63.2775 11.7402 62.189 11.8483 60.2115C11.9646 58.2091 13.2109 57.2287 15.1635 57.3616C16.9997 57.4862 17.9885 58.6246 17.9553 60.4608C17.9137 62.4716 16.7256 63.4104 14.773 63.5018Z" fill="white"/>
<path d="M60.3806 11.8208C62.3498 11.9704 63.4965 13.0007 63.4466 15.0031C63.4051 17.0139 62.2169 18.0608 60.2394 18.0026C58.3948 17.9444 57.3396 16.856 57.3147 15.0114C57.2814 13.0007 58.4114 11.9704 60.3806 11.8208Z" fill="white"/>
<path d="M15.0972 37.5201C13.0117 37.3954 11.8401 36.4233 11.8401 34.4209C11.8484 32.4268 12.9784 31.3466 14.9642 31.3632C16.8005 31.3798 17.8723 32.4268 17.9471 34.2713C18.0385 36.2821 16.9085 37.2874 15.0972 37.5201Z" fill="white"/>
<path d="M63.5212 79.9035C63.2885 82.0139 62.1751 83.0941 60.1893 82.9861C58.1703 82.8698 57.1732 81.6068 57.3062 79.6376C57.4308 77.7847 58.5858 76.7877 60.4303 76.8126C62.4743 76.8459 63.3799 78.0922 63.5212 79.9035Z" fill="white"/>
<path d="M34.4983 83.0278C32.3961 82.845 31.2661 81.8064 31.3326 79.8039C31.3908 77.7932 32.5956 76.7629 34.5731 76.8377C36.4176 76.9124 37.4479 78.0092 37.4729 79.8621C37.4978 81.8978 36.3013 82.845 34.4983 83.0278Z" fill="white"/>
<path d="M37.481 15.053C37.2567 17.0139 36.1682 18.0857 34.1907 17.9777C32.1883 17.8614 31.2078 16.6151 31.3408 14.6625C31.4654 12.8263 32.6037 11.8375 34.44 11.8707C36.4507 11.9123 37.3896 13.1005 37.481 15.053Z" fill="white"/>
<path d="M86.3539 56.7385C84.5758 56.3895 83.479 55.4174 83.6369 53.7058C83.7864 52.044 84.9331 51.0054 86.6613 51.1799C88.2067 51.3377 89.1872 52.4096 89.1373 53.98C89.0708 55.6999 87.8993 56.5308 86.3539 56.7385Z" fill="white"/>
<path d="M8.4086 56.6304C6.74683 56.4559 5.68326 55.5419 5.72481 53.822C5.75804 52.2516 6.77174 51.2463 8.34211 51.238C10.062 51.2297 11.1089 52.2849 11.0674 54.0048C11.0425 55.5752 10.0205 56.4476 8.4086 56.6304Z" fill="white"/>
<path d="M53.7996 5.68068C55.3118 5.78039 56.4169 6.56141 56.5664 8.14009C56.7326 9.87664 55.7273 11.0233 54.0239 11.1147C52.304 11.2061 51.2073 10.1425 51.1823 8.4143C51.1657 6.84392 52.1794 5.93825 53.7996 5.68068Z" fill="white"/>
<path d="M89.1787 40.8271C89.0125 42.4805 88.1401 43.6355 86.4285 43.6687C84.7252 43.7019 83.645 42.6051 83.6201 40.9018C83.6035 39.3315 84.6338 38.2762 86.1709 38.1765C87.8908 38.0519 88.8546 39.1237 89.1787 40.8271Z" fill="white"/>
<path d="M8.32549 38.2014C9.82108 38.2928 10.9095 39.0572 11.0591 40.6359C11.2169 42.3559 10.2365 43.4942 8.54153 43.5856C6.8299 43.677 5.74974 42.63 5.72482 40.9101C5.7082 39.3397 6.69695 38.4424 8.32549 38.2014Z" fill="white"/>
<path d="M43.6714 86.343C43.4969 87.9882 42.6162 89.1182 40.9129 89.1265C39.2179 89.1348 38.1543 88.0546 38.1626 86.3513C38.1626 84.7893 39.1846 83.759 40.7217 83.6759C42.425 83.5845 43.3806 84.6397 43.6714 86.343Z" fill="white"/>
<path d="M43.6381 8.38116C43.5135 9.90999 42.6992 10.9984 41.1288 11.1231C39.4006 11.256 38.2623 10.234 38.1958 8.5224C38.1377 6.80247 39.2178 5.72233 40.9461 5.73064C42.5247 5.73895 43.4055 6.76925 43.6381 8.38116Z" fill="white"/>
<path d="M53.8913 89.1846C52.2212 88.9686 51.1161 88.0463 51.1576 86.3513C51.1992 84.6646 52.3125 83.6177 54.0076 83.6841C55.553 83.7423 56.575 84.7726 56.6082 86.3263C56.6498 88.0214 55.578 88.9436 53.8913 89.1846Z" fill="white"/>
<path d="M79.848 75.8988C78.2444 75.7658 77.347 74.9017 77.4218 73.2566C77.4883 71.7527 78.3856 70.9301 79.8812 70.9467C81.5347 70.9633 82.3988 71.9188 82.3323 73.5557C82.2742 75.0596 81.3519 75.799 79.848 75.8988Z" fill="white"/>
<path d="M73.1427 12.444C74.8876 12.5271 75.8348 13.3164 75.8182 14.9699C75.8016 16.4572 74.9624 17.3296 73.4751 17.3628C71.8466 17.4044 70.9409 16.5153 70.9326 14.8785C70.9326 13.3663 71.8466 12.6434 73.1427 12.444Z" fill="white"/>
<path d="M73.4088 77.4193C74.9127 77.5523 75.81 78.3167 75.835 79.8289C75.8599 81.474 74.9626 82.388 73.3174 82.3714C71.8218 82.3548 70.9494 81.4989 70.9161 79.995C70.8829 78.3333 71.8135 77.5107 73.4088 77.4193Z" fill="white"/>
<path d="M79.6567 18.9249C81.3933 19.008 82.3488 19.8057 82.3321 21.4674C82.3155 22.963 81.4763 23.8438 79.9724 23.877C78.3356 23.9185 77.4133 23.0212 77.4133 21.376C77.4133 19.8555 78.3273 19.116 79.6567 18.9249Z" fill="white"/>
<path d="M23.8381 14.9866C23.6885 16.4573 22.9241 17.3463 21.4202 17.338C19.7668 17.3297 18.9027 16.3576 19.0024 14.7373C19.0938 13.2501 20.041 12.4607 21.5283 12.5272C23.0239 12.5853 23.7467 13.5076 23.8381 14.9866Z" fill="white"/>
<path d="M14.9893 70.955C16.4682 71.1212 17.3407 71.9105 17.3157 73.4227C17.2825 75.1011 16.2854 75.9403 14.6569 75.824C13.153 75.716 12.3803 74.7438 12.4633 73.2482C12.563 71.7277 13.502 71.0215 14.9893 70.955Z" fill="white"/>
<path d="M69.1961 8.34772C69.0715 9.69375 68.3652 10.6243 67.0275 10.6908C65.5319 10.7656 64.593 9.85995 64.6096 8.36435C64.6262 7.01832 65.5153 6.1708 66.8613 6.16249C68.2323 6.14587 68.9634 7.03492 69.1961 8.34772Z" fill="white"/>
<path d="M30.1944 8.43928C29.995 9.75207 29.2888 10.666 27.951 10.6744C26.4804 10.6827 25.5581 9.74375 25.6495 8.27309C25.7243 6.9686 26.63 6.12111 27.976 6.17927C29.3137 6.22912 30.0117 7.12648 30.1944 8.43928Z" fill="white"/>
<path d="M21.3872 77.4524C22.8744 77.5604 23.7967 78.3082 23.8133 79.8287C23.8382 81.4905 22.9076 82.3878 21.2542 82.3296C19.742 82.2715 18.936 81.3492 18.9692 79.8453C19.0025 78.3248 19.8999 77.5687 21.3872 77.4524Z" fill="white"/>
<path d="M86.3536 69.2599C84.9245 69.0522 83.9939 68.2794 84.0687 66.7672C84.1351 65.4295 85.0075 64.582 86.3618 64.5986C87.8574 64.6236 88.7382 65.5375 88.6717 67.0331C88.6136 68.3958 87.7162 69.102 86.3536 69.2599Z" fill="white"/>
<path d="M8.2257 64.5986C9.66313 64.7565 10.5854 65.4544 10.6436 66.7838C10.7017 68.2545 9.78775 69.1934 8.31709 69.1601C6.99598 69.1352 6.1568 68.2379 6.14849 66.9002C6.14018 65.5375 7.07908 64.8811 8.2257 64.5986Z" fill="white"/>
<path d="M14.9892 23.8853C13.3607 23.7108 12.4716 22.9381 12.4883 21.4342C12.5049 19.7807 13.4853 18.9249 15.1056 19.0246C16.5929 19.1243 17.3655 20.0715 17.3074 21.5588C17.2409 23.0877 16.2605 23.7441 14.9892 23.8853Z" fill="white"/>
<path d="M86.2289 30.2583C84.8414 29.9674 83.9357 29.1532 84.1019 27.6659C84.2431 26.3697 85.1488 25.5305 86.4865 25.6385C87.9489 25.7466 88.8047 26.7021 88.6468 28.181C88.5139 29.4855 87.5916 30.1752 86.2289 30.2583Z" fill="white"/>
<path d="M30.211 86.4924C29.9701 87.8052 29.2389 88.6859 27.8763 88.6693C26.5302 88.6527 25.6412 87.7969 25.6329 86.4509C25.6246 84.9553 26.5634 84.0496 28.059 84.1327C29.3884 84.2158 30.0947 85.1547 30.211 86.4924Z" fill="white"/>
<path d="M66.7283 84.0414C68.2903 84.2658 69.2293 85.0219 69.1628 86.5175C69.1046 87.8386 68.2405 88.6944 66.9111 88.6861C65.4404 88.6778 64.5514 87.7638 64.5929 86.2848C64.6262 84.9388 65.59 84.299 66.7283 84.0414Z" fill="white"/>
<path d="M10.6768 27.9898C10.4276 29.3192 9.67975 30.2083 8.3171 30.1501C6.97937 30.0919 6.11528 29.2029 6.16513 27.8486C6.21499 26.5108 7.11231 25.6467 8.46665 25.6966C9.8293 25.7464 10.5273 26.6604 10.6768 27.9898Z" fill="white"/>
<path d="M94.9203 47.3661C94.7873 48.6872 94.106 49.4433 92.8513 49.435C91.5967 49.4184 90.8489 48.6539 90.8572 47.3993C90.8739 46.1447 91.6383 45.3969 92.8929 45.4052C94.1559 45.4135 94.7956 46.2112 94.9203 47.3661Z" fill="white"/>
<path d="M62.167 92.6742C62.1255 93.8624 61.6021 94.552 60.5967 94.6434C59.4501 94.7514 58.6856 94.1449 58.6441 92.9651C58.6025 91.7935 59.3005 91.1371 60.472 91.1538C61.519 91.1704 61.9842 91.8766 62.167 92.6742Z" fill="white"/>
<path d="M45.3911 92.9401C45.5739 91.5359 46.3134 90.8546 47.5598 90.9543C48.831 91.0623 49.4625 91.9181 49.3295 93.1561C49.2132 94.2529 48.4737 94.8927 47.352 94.8677C46.0642 94.8262 45.4991 94.0119 45.3911 92.9401Z" fill="white"/>
<path d="M36.1518 92.8902C36.0272 93.9952 35.4373 94.6849 34.2823 94.635C33.2853 94.5852 32.6621 93.9454 32.6621 92.94C32.6621 91.7934 33.3518 91.1287 34.4984 91.1786C35.5038 91.2118 36.0272 91.8765 36.1518 92.8902Z" fill="white"/>
<path d="M36.1353 1.94179C36.0024 2.93886 35.4623 3.62018 34.4486 3.62849C33.2853 3.6368 32.604 2.91393 32.6954 1.759C32.7702 0.770247 33.4598 0.15538 34.4818 0.213541C35.4955 0.280012 36.019 0.944734 36.1353 1.94179Z" fill="white"/>
<path d="M49.3383 1.93338C49.1721 3.33758 48.3911 3.96907 47.1365 3.84443C45.9982 3.72811 45.3916 2.96368 45.4664 1.82537C45.5495 0.504259 46.3804 -0.10228 47.6433 0.0140435C48.7899 0.122058 49.305 0.911397 49.3383 1.93338Z" fill="white"/>
<path d="M62.1667 1.86694C61.959 3.11326 61.311 3.77796 60.1727 3.65333C59.2005 3.54532 58.5856 2.88061 58.6521 1.86694C58.7269 0.720316 59.4581 0.0971529 60.5881 0.205168C61.5935 0.296565 62.0421 1.03605 62.1667 1.86694Z" fill="white"/>
<path d="M3.64751 34.4209C3.52288 35.418 2.9911 36.1076 1.97742 36.1242C0.814185 36.1492 0.124589 35.4346 0.199369 34.2797C0.26584 33.2909 0.93886 32.6678 1.96916 32.7176C2.99114 32.7592 3.51457 33.4239 3.64751 34.4209Z" fill="white"/>
<path d="M94.671 34.2382C94.5879 35.5177 94.0146 36.1908 92.8431 36.1908C91.8294 36.1908 91.1896 35.6174 91.1065 34.6204C91.0151 33.4904 91.5801 32.7426 92.7434 32.6595C93.9315 32.5681 94.4965 33.2744 94.671 34.2382Z" fill="white"/>
<path d="M3.82217 47.4242C3.73908 48.6456 3.08268 49.3602 1.79481 49.3103C0.656497 49.2688 0.00837889 48.5875 7.00496e-05 47.4575C-0.00823879 46.1696 0.722968 45.4799 2.00253 45.5215C3.14915 45.5547 3.73077 46.2527 3.82217 47.4242Z" fill="white"/>
<path d="M3.64746 60.4525C3.4896 61.4496 2.94952 62.1226 1.93584 62.1143C0.772606 62.106 0.0995757 61.3748 0.207591 60.2198C0.307297 59.2394 0.996933 58.6245 2.02723 58.6993C3.02429 58.7824 3.55607 59.4471 3.64746 60.4525Z" fill="white"/>
<path d="M94.6627 60.3695C94.5879 61.4995 94.0145 62.1725 92.8513 62.1808C91.8376 62.1808 91.1979 61.6076 91.1148 60.6105C91.0234 59.4805 91.5884 58.7244 92.7516 58.6496C93.9065 58.5748 94.5297 59.2146 94.6627 60.3695Z" fill="white"/>
</g>
</svg>
