<svg width="26" height="26" viewBox="0 0 26 26" fill="none" xmlns="http://www.w3.org/2000/svg">
<path d="M6.8867 24.6667H19.1134C22.3334 24.6667 23.6167 22.695 23.7684 20.2917L24.375 10.655C24.5384 8.135 22.5317 6 20 6C19.2884 6 18.635 5.59166 18.3084 4.96166L17.4684 3.27C16.9317 2.20833 15.5317 1.33333 14.3417 1.33333H11.67C10.4684 1.33333 9.06837 2.20833 8.5317 3.27L7.6917 4.96166C7.36503 5.59166 6.7117 6 6.00003 6C3.46837 6 1.4617 8.135 1.62503 10.655L2.2317 20.2917C2.3717 22.695 3.6667 24.6667 6.8867 24.6667Z" stroke="#8C8A8A" stroke-opacity="0.8" stroke-width="1.5" stroke-linecap="round" stroke-linejoin="round"/>
<path d="M11.25 8.33333H14.75" stroke="#8C8A8A" stroke-opacity="0.8" stroke-width="1.5" stroke-linecap="round" stroke-linejoin="round"/>
<path d="M13.0002 20C15.0885 20 16.7918 18.2967 16.7918 16.2083C16.7918 14.12 15.0885 12.4167 13.0002 12.4167C10.9118 12.4167 9.2085 14.12 9.2085 16.2083C9.2085 18.2967 10.9118 20 13.0002 20Z" stroke="#8C8A8A" stroke-opacity="0.8" stroke-width="1.5" stroke-linecap="round" stroke-linejoin="round"/>
</svg>
