<svg width="22" height="22" viewBox="0 0 22 22" fill="none" xmlns="http://www.w3.org/2000/svg">
<path d="M14.841 1.8335H7.15933C3.82266 1.8335 1.8335 3.82266 1.8335 7.15933V14.8318C1.8335 18.1777 3.82266 20.1668 7.15933 20.1668H14.8318C18.1685 20.1668 20.1577 18.1777 20.1577 14.841V7.15933C20.1668 3.82266 18.1777 1.8335 14.841 1.8335ZM14.4377 14.4377H7.56266C7.18683 14.4377 6.87516 14.126 6.87516 13.7502C6.87516 13.3743 7.18683 13.0627 7.56266 13.0627H14.4377C14.8135 13.0627 15.1252 13.3743 15.1252 13.7502C15.1252 14.126 14.8135 14.4377 14.4377 14.4377ZM14.4377 8.93766H7.56266C7.18683 8.93766 6.87516 8.626 6.87516 8.25016C6.87516 7.87433 7.18683 7.56266 7.56266 7.56266H14.4377C14.8135 7.56266 15.1252 7.87433 15.1252 8.25016C15.1252 8.626 14.8135 8.93766 14.4377 8.93766Z" fill="#298091"/>
</svg>
