<svg width="20" height="20" viewBox="0 0 20 20" fill="none" xmlns="http://www.w3.org/2000/svg">
<path d="M19 20H1C0.59 20 0.25 19.66 0.25 19.25C0.25 18.84 0.59 18.5 1 18.5H19C19.41 18.5 19.75 18.84 19.75 19.25C19.75 19.66 19.41 20 19 20Z" fill="url(#paint0_linear_455_683)"/>
<path d="M17.0201 1.48C15.0801 -0.459995 13.1801 -0.509995 11.1901 1.48L9.98007 2.69C9.88007 2.79 9.84007 2.95 9.88007 3.09C10.6401 5.74001 12.7601 7.86 15.4101 8.62C15.4501 8.63 15.4901 8.64001 15.5301 8.64001C15.6401 8.64001 15.7401 8.60001 15.8201 8.52001L17.0201 7.31001C18.0101 6.33001 18.4901 5.38 18.4901 4.42C18.5001 3.43 18.0201 2.47 17.0201 1.48Z" fill="url(#paint1_linear_455_683)"/>
<path d="M13.6098 9.53C13.3198 9.39 13.0398 9.25 12.7698 9.09C12.5498 8.96 12.3398 8.82 12.1298 8.67C11.9598 8.56 11.7598 8.4 11.5698 8.24C11.5498 8.23 11.4798 8.17 11.3998 8.09C11.0698 7.81 10.6998 7.45 10.3698 7.05C10.3398 7.03 10.2898 6.96 10.2198 6.87C10.1198 6.75 9.94983 6.55 9.79983 6.32C9.67983 6.17 9.53983 5.95 9.40983 5.73C9.24983 5.46 9.10983 5.19 8.96983 4.91C8.94865 4.86461 8.92815 4.81944 8.90827 4.77454C8.7607 4.44122 8.32606 4.34378 8.0683 4.60153L2.33983 10.33C2.20983 10.46 2.08983 10.71 2.05983 10.88L1.51983 14.71C1.41983 15.39 1.60983 16.03 2.02983 16.46C2.38983 16.81 2.88983 17 3.42983 17C3.54983 17 3.66983 16.99 3.78983 16.97L7.62983 16.43C7.80983 16.4 8.05983 16.28 8.17983 16.15L13.9011 10.4287C14.1607 10.1691 14.0628 9.72367 13.7252 9.57961C13.6872 9.5634 13.6488 9.54687 13.6098 9.53Z" fill="url(#paint2_linear_455_683)"/>
<defs>
<linearGradient id="paint0_linear_455_683" x1="1.8279" y1="18.5" x2="1.85268" y2="20.2069" gradientUnits="userSpaceOnUse">
<stop stop-color="#131313"/>
<stop offset="1" stop-color="#494949"/>
</linearGradient>
<linearGradient id="paint1_linear_455_683" x1="10.5627" y1="0.0061951" x2="12.3552" y2="9.49452" gradientUnits="userSpaceOnUse">
<stop stop-color="#131313"/>
<stop offset="1" stop-color="#494949"/>
</linearGradient>
<linearGradient id="paint2_linear_455_683" x1="2.54285" y1="4.05" x2="5.22591" y2="18.2839" gradientUnits="userSpaceOnUse">
<stop stop-color="#131313"/>
<stop offset="1" stop-color="#494949"/>
</linearGradient>
</defs>
</svg>
