<svg width="10" height="10" viewBox="0 0 10 10" fill="none" xmlns="http://www.w3.org/2000/svg">
<path d="M9.057 0.859722C7.92533 -0.271944 6.817 -0.301111 5.65616 0.859722L4.95033 1.56556C4.892 1.62389 4.86866 1.71722 4.892 1.79889C5.33533 3.34472 6.572 4.58139 8.11783 5.02472C8.14116 5.03056 8.1645 5.03639 8.18783 5.03639C8.252 5.03639 8.31033 5.01306 8.357 4.96639L9.057 4.26056C9.6345 3.68889 9.9145 3.13472 9.9145 2.57472C9.92033 1.99722 9.64033 1.43722 9.057 0.859722Z" fill="white"/>
<path d="M7.06777 5.55555C6.8986 5.47389 6.73527 5.39222 6.57777 5.29889C6.44944 5.22305 6.32694 5.14139 6.20444 5.05389C6.10527 4.98972 5.9886 4.89639 5.87777 4.80305C5.8661 4.79722 5.82527 4.76222 5.7786 4.71555C5.5861 4.55222 5.37027 4.34222 5.17777 4.10889C5.16027 4.09722 5.1311 4.05639 5.09027 4.00389C5.03194 3.93389 4.93277 3.81722 4.84527 3.68305C4.77527 3.59555 4.6936 3.46722 4.61777 3.33889C4.52444 3.18139 4.44277 3.02389 4.3611 2.86055V2.86055C4.25403 2.63111 3.95288 2.56294 3.77384 2.74198L0.493604 6.02222C0.417771 6.09805 0.347771 6.24389 0.330271 6.34305L0.0152706 8.57722C-0.0430628 8.97389 0.0677707 9.34722 0.312771 9.59805C0.522771 9.80222 0.814437 9.91305 1.12944 9.91305C1.19944 9.91305 1.26944 9.90722 1.33944 9.89555L3.57944 9.58055C3.68444 9.56305 3.83027 9.49305 3.90027 9.41722L7.18592 6.13157C7.36138 5.95611 7.29545 5.65422 7.06777 5.55555V5.55555Z" fill="white"/>
</svg>
