<svg width="24" height="24" viewBox="0 0 24 24" fill="none" xmlns="http://www.w3.org/2000/svg">
<path d="M12.7906 21.2831C13.1111 21.3577 13.1404 21.7775 12.8282 21.8816L10.9849 22.4882C6.35324 23.9816 3.91491 22.7332 2.40991 18.1016L0.916576 13.4932C-0.576757 8.86158 0.659909 6.41158 5.29158 4.91824L6.07224 4.65971C6.4751 4.52629 6.86466 4.92942 6.74585 5.33683C6.66191 5.62467 6.58227 5.92848 6.50491 6.24824L5.36158 11.1366C4.07824 16.6316 5.95658 19.6649 11.4516 20.9716L12.7906 21.2831Z" fill="#298091"/>
<path d="M18.0316 1.74509L16.0832 1.29009C12.1866 0.368424 9.86488 1.12676 8.49988 3.95009C8.14988 4.66176 7.86988 5.52509 7.63655 6.51676L6.49322 11.4051C5.34988 16.2818 6.85488 18.6851 11.7199 19.8401L13.6799 20.3068C14.3566 20.4701 14.9866 20.5751 15.5699 20.6218C19.2099 20.9718 21.1466 19.2684 22.1266 15.0568L23.2699 10.1801C24.4132 5.30342 22.9199 2.88842 18.0316 1.74509ZM15.8382 13.5518C15.7332 13.9484 15.3832 14.2051 14.9866 14.2051C14.9166 14.2051 14.8466 14.1934 14.7649 14.1818L11.3699 13.3184C10.9032 13.2018 10.6232 12.7234 10.7399 12.2568C10.8566 11.7901 11.3349 11.5101 11.8016 11.6268L15.1966 12.4901C15.6749 12.6068 15.9549 13.0851 15.8382 13.5518ZM19.2566 9.60842C19.1516 10.0051 18.8016 10.2618 18.4049 10.2618C18.3349 10.2618 18.2649 10.2501 18.1832 10.2384L12.5249 8.80342C12.0582 8.68676 11.7782 8.20842 11.8949 7.74176C12.0116 7.27509 12.4899 6.99509 12.9566 7.11176L18.6149 8.54676C19.0932 8.65176 19.3732 9.13009 19.2566 9.60842Z" fill="#298091"/>
</svg>
