<svg width="22" height="24" viewBox="0 0 22 24" fill="none" xmlns="http://www.w3.org/2000/svg">
<path d="M13.7416 0.333252H8.25822C7.04489 0.333252 6.05322 1.31325 6.05322 2.52659V3.62325C6.05322 4.83659 7.03322 5.81659 8.24656 5.81659H13.7416C14.9549 5.81659 15.9349 4.83659 15.9349 3.62325V2.52659C15.9466 1.31325 14.9549 0.333252 13.7416 0.333252Z" fill="#298091"/>
<path d="M17.1134 3.62331C17.1134 5.47831 15.5967 6.99498 13.7417 6.99498H8.25838C6.40338 6.99498 4.88671 5.47831 4.88671 3.62331C4.88671 2.96998 4.18671 2.56164 3.60338 2.86498C1.95838 3.73998 0.838379 5.47831 0.838379 7.47331V18.4516C0.838379 21.3216 3.18338 23.6666 6.05338 23.6666H15.9467C18.8167 23.6666 21.1617 21.3216 21.1617 18.4516V7.47331C21.1617 5.47831 20.0417 3.73998 18.3967 2.86498C17.8134 2.56164 17.1134 2.96998 17.1134 3.62331ZM11.4434 17.775H6.33338C5.85505 17.775 5.45838 17.3783 5.45838 16.9C5.45838 16.4216 5.85505 16.025 6.33338 16.025H11.4434C11.9217 16.025 12.3184 16.4216 12.3184 16.9C12.3184 17.3783 11.9217 17.775 11.4434 17.775ZM14.5 13.1083H6.33338C5.85505 13.1083 5.45838 12.7116 5.45838 12.2333C5.45838 11.755 5.85505 11.3583 6.33338 11.3583H14.5C14.9784 11.3583 15.375 11.755 15.375 12.2333C15.375 12.7116 14.9784 13.1083 14.5 13.1083Z" fill="#298091"/>
</svg>
