<svg width="24" height="20" viewBox="0 0 24 20" fill="none" xmlns="http://www.w3.org/2000/svg">
<path d="M13.1217 10.07C13.1217 9.66 12.7817 9.32 12.3717 9.32H6.89172V0.86C6.90172 0.38 7.28172 0 7.76172 0C13.6517 0 17.7617 4.11 17.7617 10C17.7617 15.89 13.6517 20 7.76172 20C7.29172 20 6.90172 19.62 6.90172 19.14V10.81H12.3717C12.7917 10.82 13.1217 10.48 13.1217 10.07Z" fill="#292D32"/>
<path d="M0.458437 9.54016L3.29844 6.69016C3.58844 6.40016 4.06844 6.40016 4.35844 6.69016C4.64844 6.98016 4.64844 7.46016 4.35844 7.75016L2.79844 9.31016H6.89844V10.8102H2.80844L4.36844 12.3702C4.65844 12.6602 4.65844 13.1402 4.36844 13.4302C4.21844 13.5802 4.02844 13.6502 3.83844 13.6502C3.64844 13.6502 3.45844 13.5802 3.30844 13.4302L0.468437 10.5802C0.168437 10.3002 0.168437 9.83016 0.458437 9.54016Z" fill="#292D32"/>
</svg>
