<svg width="22" height="24" viewBox="0 0 22 24" fill="none" xmlns="http://www.w3.org/2000/svg">
<path d="M19.7617 4.82492L12.8317 0.823252C11.7001 0.169919 10.3001 0.169919 9.15674 0.823252L2.2384 4.82492C1.10674 5.47825 0.406738 6.69159 0.406738 8.00992V15.9899C0.406738 17.2966 1.10674 18.5099 2.2384 19.1749L9.1684 23.1766C10.3001 23.8299 11.7001 23.8299 12.8434 23.1766L19.7734 19.1749C20.9051 18.5216 21.6051 17.3083 21.6051 15.9899V8.00992C21.5934 6.69159 20.8934 5.48992 19.7617 4.82492ZM11.0001 6.56325C12.5051 6.56325 13.7184 7.77659 13.7184 9.28159C13.7184 10.7866 12.5051 11.9999 11.0001 11.9999C9.49507 11.9999 8.28174 10.7866 8.28174 9.28159C8.28174 7.78825 9.49507 6.56325 11.0001 6.56325ZM14.1267 17.4366H7.8734C6.9284 17.4366 6.38007 16.3866 6.90507 15.6049C7.6984 14.4266 9.2384 13.6333 11.0001 13.6333C12.7617 13.6333 14.3017 14.4266 15.0951 15.6049C15.6201 16.3749 15.0601 17.4366 14.1267 17.4366Z" fill="#298091"/>
</svg>
