<svg width="22" height="22" viewBox="0 0 22 22" fill="none" xmlns="http://www.w3.org/2000/svg">
<path d="M6.41683 1.8335H5.50016C2.75016 1.8335 1.8335 3.47433 1.8335 5.50016V6.41683V19.2502C1.8335 20.011 2.69516 20.4418 3.30016 19.9835L4.86766 18.8102C5.23433 18.5352 5.74766 18.5718 6.07766 18.9018L7.59933 20.4327C7.95683 20.7902 8.5435 20.7902 8.901 20.4327L10.441 18.8927C10.7618 18.5718 11.2752 18.5352 11.6327 18.8102L13.2002 19.9835C13.8052 20.4327 14.6668 20.0018 14.6668 19.2502V3.66683C14.6668 2.6585 15.4918 1.8335 16.5002 1.8335H6.41683ZM5.47266 12.8427C4.9685 12.8427 4.556 12.4302 4.556 11.926C4.556 11.4218 4.9685 11.0093 5.47266 11.0093C5.97683 11.0093 6.38933 11.4218 6.38933 11.926C6.38933 12.4302 5.97683 12.8427 5.47266 12.8427ZM5.47266 9.176C4.9685 9.176 4.556 8.7635 4.556 8.25933C4.556 7.75516 4.9685 7.34266 5.47266 7.34266C5.97683 7.34266 6.38933 7.75516 6.38933 8.25933C6.38933 8.7635 5.97683 9.176 5.47266 9.176ZM11.0002 12.6135H8.25016C7.87433 12.6135 7.56266 12.3018 7.56266 11.926C7.56266 11.5502 7.87433 11.2385 8.25016 11.2385H11.0002C11.376 11.2385 11.6877 11.5502 11.6877 11.926C11.6877 12.3018 11.376 12.6135 11.0002 12.6135ZM11.0002 8.94683H8.25016C7.87433 8.94683 7.56266 8.63516 7.56266 8.25933C7.56266 7.8835 7.87433 7.57183 8.25016 7.57183H11.0002C11.376 7.57183 11.6877 7.8835 11.6877 8.25933C11.6877 8.63516 11.376 8.94683 11.0002 8.94683Z" fill="#298091"/>
<path d="M16.509 1.8335V3.2085C17.114 3.2085 17.6915 3.456 18.1132 3.8685C18.5532 4.31766 18.7915 4.89516 18.7915 5.50016V7.7185C18.7915 8.39683 18.489 8.7085 17.8015 8.7085H16.0415V3.676C16.0415 3.41933 16.2523 3.2085 16.509 3.2085V1.8335ZM16.509 1.8335C15.4915 1.8335 14.6665 2.6585 14.6665 3.676V10.0835H17.8015C19.2498 10.0835 20.1665 9.16683 20.1665 7.7185V5.50016C20.1665 4.49183 19.754 3.57516 19.094 2.906C18.4248 2.246 17.5173 1.84266 16.509 1.8335C16.5182 1.8335 16.509 1.8335 16.509 1.8335Z" fill="#298091"/>
</svg>
