<svg width="20" height="24" viewBox="0 0 20 24" fill="none" xmlns="http://www.w3.org/2000/svg">
<path d="M13.8034 23.6666C13.7333 23.6666 13.6517 23.655 13.5817 23.6316C11.2367 22.9666 8.77502 22.9666 6.43002 23.6316C5.99835 23.7483 5.54335 23.5033 5.42668 23.0716C5.29835 22.64 5.55502 22.185 5.98668 22.0683C8.62335 21.3216 11.4 21.3216 14.0367 22.0683C14.4684 22.1966 14.725 22.64 14.5967 23.0716C14.48 23.4333 14.1533 23.6666 13.8034 23.6666Z" fill="#298091"/>
<path d="M18.4116 5.42001C17.1983 2.97001 14.8533 1.16168 12.1349 0.566679C9.28826 -0.0633207 6.37159 0.613346 4.14326 2.41001C1.90326 4.19501 0.631592 6.86668 0.631592 9.72501C0.631592 12.7467 2.43993 15.9083 5.16993 17.74V18.7083C5.15826 19.035 5.14659 19.5367 5.54326 19.945C5.95159 20.365 6.55826 20.4117 7.03659 20.4117H13.0216C13.6516 20.4117 14.1299 20.2367 14.4566 19.91C14.8999 19.455 14.8883 18.8717 14.8766 18.5567V17.74C18.4933 15.3017 20.7683 10.1567 18.4116 5.42001ZM12.0066 11.5567L10.7583 13.7267C10.5949 14.0067 10.3033 14.17 9.99992 14.17C9.84826 14.17 9.69659 14.135 9.56826 14.0533C9.14826 13.8083 9.00826 13.2717 9.24159 12.8633L10.2333 11.1367H9.25326C8.66992 11.1367 8.19159 10.88 7.93492 10.4483C7.67826 10.005 7.70159 9.46835 7.99326 8.95501L9.24159 6.78501C9.48659 6.36501 10.0233 6.22501 10.4316 6.45835C10.8516 6.70335 10.9916 7.24001 10.7583 7.64835L9.76659 9.37501H10.7466C11.3299 9.37501 11.8083 9.63168 12.0649 10.0633C12.3216 10.5067 12.2983 11.055 12.0066 11.5567Z" fill="#298091"/>
</svg>
