<svg width="13" height="13" viewBox="0 0 13 13" fill="none" xmlns="http://www.w3.org/2000/svg">
<path d="M7.62696 0.935095L8.77127 3.23955C8.92731 3.55379 9.34342 3.86803 9.69018 3.92041L11.7621 4.26957C13.0884 4.49652 13.4005 5.45671 12.4469 6.4169L10.8345 8.04922C10.5657 8.31982 10.4097 8.85229 10.4964 9.23636L10.9558 11.2528C11.3199 12.8414 10.479 13.4612 9.08335 12.6319L7.1415 11.471C6.78607 11.2615 6.21392 11.2615 5.8585 11.471L3.90798 12.6232C2.51228 13.4525 1.67139 12.8327 2.03549 11.244L2.49494 9.22763C2.58163 8.85229 2.42559 8.31982 2.15685 8.04049L0.553097 6.42563C-0.400488 5.46544 -0.0884058 4.49652 1.23794 4.2783L3.30982 3.92914C3.65658 3.86804 4.07269 3.56252 4.22873 3.24828L5.37304 0.943825C5.98853 -0.313149 7.01147 -0.31315 7.62696 0.935095Z" fill="#FFB300"/>
</svg>
