<svg width="24" height="24" viewBox="0 0 24 24" fill="none" xmlns="http://www.w3.org/2000/svg">
<path d="M22.4883 9.32825C22.0917 9.16492 21.5667 9.08325 20.9133 9.08325H14.7533C12.7233 9.08325 12 9.80659 12 11.8599V20.8899C12 21.5666 12.0817 22.0916 12.2567 22.4999C12.6183 23.3399 13.3883 23.6666 14.7533 23.6666H20.9133C22.9433 23.6666 23.6667 22.9316 23.6667 20.8899V11.8599C23.6667 10.4716 23.34 9.68992 22.4883 9.32825ZM19 21.0416H16.6667C16.6433 21.0416 16.6083 21.0416 16.585 21.0299C16.41 21.0183 16.2583 20.9599 16.13 20.8433C15.92 20.6916 15.7917 20.4466 15.7917 20.1666C15.7917 19.6883 16.1883 19.2916 16.6667 19.2916H19C19.4783 19.2916 19.875 19.6883 19.875 20.1666C19.875 20.6449 19.4783 21.0416 19 21.0416Z" fill="#298091"/>
<path d="M22.4883 5.22159V6.16659C22.4883 6.80825 21.9633 7.33325 21.3216 7.33325H14.7533C11.7666 7.33325 10.25 8.86159 10.25 11.8599V22.4999C10.25 23.1416 9.72497 23.6666 9.0833 23.6666H6.8083C6.34164 23.6666 5.9683 23.2933 5.9683 22.8383C5.9683 22.3716 6.34164 22.0099 6.8083 22.0099H9.0833V17.5416H4.99997C2.40997 17.4133 0.344971 15.2783 0.344971 12.6533V5.22159C0.344971 2.52659 2.5383 0.333252 5.24497 0.333252H17.6C20.295 0.333252 22.4883 2.52659 22.4883 5.22159Z" fill="#298091"/>
</svg>
