<svg width="22" height="24" viewBox="0 0 22 24" fill="none" xmlns="http://www.w3.org/2000/svg">
<path d="M16.635 16.2466C17.4166 15.7333 18.4433 16.2933 18.4433 17.2266V18.7316C18.4433 20.2133 17.2883 21.7999 15.9 22.2666L12.1783 23.5033C11.525 23.7249 10.4633 23.7249 9.82164 23.5033L6.09997 22.2666C4.69997 21.7999 3.55664 20.2133 3.55664 18.7316V17.2149C3.55664 16.2933 4.58331 15.7333 5.35331 16.2349L7.75664 17.7983C8.67831 18.4166 9.84497 18.7199 11.0116 18.7199C12.1783 18.7199 13.345 18.4166 14.2666 17.7983L16.635 16.2466Z" fill="#298091"/>
<path d="M20.31 5.53657L13.3217 0.951572C12.0617 0.123239 9.98502 0.123239 8.72502 0.951572L1.70169 5.53657C-0.549977 6.99491 -0.549977 10.2966 1.70169 11.7666L3.56836 12.9799L8.72502 16.3399C9.98502 17.1682 12.0617 17.1682 13.3217 16.3399L18.4434 12.9799L20.0417 11.9299V15.4999C20.0417 15.9782 20.4384 16.3749 20.9167 16.3749C21.395 16.3749 21.7917 15.9782 21.7917 15.4999V9.7599C22.2584 8.2549 21.78 6.50491 20.31 5.53657Z" fill="#298091"/>
</svg>
