<svg width="24" height="20" viewBox="0 0 24 20" fill="none" xmlns="http://www.w3.org/2000/svg">
<path d="M23.6666 8.7984V11.2017C23.6666 11.8434 23.1533 12.3684 22.4999 12.3917H20.2133C18.9533 12.3917 17.7983 11.4701 17.6933 10.2101C17.6233 9.47507 17.9033 8.78673 18.3933 8.3084C18.8249 7.86507 19.4199 7.6084 20.0733 7.6084H22.4999C23.1533 7.63173 23.6666 8.15673 23.6666 8.7984Z" fill="#298091"/>
<path d="M21.8816 14.1416H20.2133C17.9966 14.1416 16.1299 12.4733 15.9433 10.3499C15.8383 9.13659 16.2816 7.92325 17.1683 7.05992C17.9149 6.28992 18.9533 5.85825 20.0733 5.85825H21.8816C22.2199 5.85825 22.4999 5.57825 22.4649 5.23992C22.2083 2.40492 20.3299 0.468252 17.5416 0.141585C17.2616 0.0949186 16.9699 0.083252 16.6666 0.083252H6.16659C5.83992 0.083252 5.52492 0.106585 5.22159 0.153252C2.24659 0.526585 0.333252 2.74325 0.333252 5.91658V14.0833C0.333252 17.3033 2.94659 19.9166 6.16659 19.9166H16.6666C19.9333 19.9166 22.1849 17.8749 22.4649 14.7599C22.4999 14.4216 22.2199 14.1416 21.8816 14.1416ZM13.1666 7.37492H6.16659C5.68825 7.37492 5.29159 6.97825 5.29159 6.49992C5.29159 6.02159 5.68825 5.62492 6.16659 5.62492H13.1666C13.6449 5.62492 14.0416 6.02159 14.0416 6.49992C14.0416 6.97825 13.6449 7.37492 13.1666 7.37492Z" fill="#298091"/>
</svg>
