<svg width="22" height="22" viewBox="0 0 22 22" fill="none" xmlns="http://www.w3.org/2000/svg">
<path fill-rule="evenodd" clip-rule="evenodd" d="M8.18185 15.0242H13.1191C13.4913 15.0242 13.7998 14.7125 13.7998 14.3367C13.7998 13.9608 13.4913 13.6583 13.1191 13.6583H8.18185C7.80974 13.6583 7.50116 13.9608 7.50116 14.3367C7.50116 14.7125 7.80974 15.0242 8.18185 15.0242ZM11.2495 9.07501H8.18185C7.80974 9.07501 7.50116 9.38668 7.50116 9.76251C7.50116 10.1383 7.80974 10.4408 8.18185 10.4408H11.2495C11.6216 10.4408 11.9302 10.1383 11.9302 9.76251C11.9302 9.38668 11.6216 9.07501 11.2495 9.07501ZM17.7265 8.27349C17.9398 8.27102 18.1721 8.26834 18.3832 8.26834C18.6101 8.26834 18.7916 8.45168 18.7916 8.68084V16.0508C18.7916 18.3242 16.9673 20.1667 14.7165 20.1667H7.49208C5.13234 20.1667 3.20825 18.2325 3.20825 15.8492V5.96751C3.20825 3.69418 5.04158 1.83334 7.30149 1.83334H12.148C12.384 1.83334 12.5655 2.02584 12.5655 2.25501V5.20668C12.5655 6.88418 13.936 8.25918 15.5969 8.26834C15.9848 8.26834 16.3268 8.27124 16.6261 8.27378C16.859 8.27575 17.066 8.27751 17.2487 8.27751C17.3779 8.27751 17.5453 8.27558 17.7265 8.27349ZM17.9768 6.93551C17.2307 6.93826 16.3513 6.93551 15.7187 6.92909C14.7149 6.92909 13.8881 6.09401 13.8881 5.08018V2.66384C13.8881 2.26876 14.3627 2.07259 14.6341 2.35768C15.1253 2.87353 15.8003 3.58263 16.4723 4.28848C17.1424 4.99245 17.8095 5.69318 18.2881 6.19576C18.5531 6.47351 18.3588 6.93459 17.9768 6.93551Z" fill="#298091"/>
</svg>
