<svg width="22" height="22" viewBox="0 0 22 22" fill="none" xmlns="http://www.w3.org/2000/svg">
<path d="M7.59912 5.76584C7.21412 5.76584 6.91162 5.45418 6.91162 5.07834V2.52084C6.91162 2.14501 7.21412 1.83334 7.59912 1.83334C7.98412 1.83334 8.28662 2.14501 8.28662 2.52084V5.06918C8.28662 5.45418 7.98412 5.76584 7.59912 5.76584Z" fill="#298091"/>
<path d="M14.4009 5.76584C14.0159 5.76584 13.7134 5.45418 13.7134 5.07834V2.52084C13.7134 2.13584 14.025 1.83334 14.4009 1.83334C14.7859 1.83334 15.0884 2.14501 15.0884 2.52084V5.06918C15.0884 5.45418 14.7859 5.76584 14.4009 5.76584Z" fill="#298091"/>
<path d="M19.7083 14.5017C19.7083 14.6392 19.6625 14.7767 19.5433 14.8958C18.2142 16.2342 15.8492 18.6175 14.4925 19.9833C14.3733 20.1117 14.2175 20.1667 14.0617 20.1667C13.7592 20.1667 13.4658 19.9283 13.4658 19.58V16.3717C13.4658 15.0333 14.6025 13.9242 15.9958 13.9242C16.8667 13.915 18.0767 13.915 19.1125 13.915C19.47 13.915 19.7083 14.1992 19.7083 14.5017Z" fill="#298091"/>
<path d="M19.7083 14.5017C19.7083 14.6392 19.6625 14.7767 19.5433 14.8958C18.2142 16.2342 15.8492 18.6175 14.4925 19.9833C14.3733 20.1117 14.2175 20.1667 14.0617 20.1667C13.7592 20.1667 13.4658 19.9283 13.4658 19.58V16.3717C13.4658 15.0333 14.6025 13.9242 15.9958 13.9242C16.8667 13.915 18.0767 13.915 19.1125 13.915C19.47 13.915 19.7083 14.1992 19.7083 14.5017Z" fill="#298091"/>
<path d="M17.9392 4.12501C17.3342 3.67584 16.4634 4.10668 16.4634 4.86751V4.95918C16.4634 6.03168 15.6934 7.02168 14.6209 7.13168C13.3834 7.26001 12.3384 6.28834 12.3384 5.07834V4.12501C12.3384 3.62084 11.9259 3.20834 11.4217 3.20834H10.5784C10.0742 3.20834 9.66175 3.62084 9.66175 4.12501V4.95918C9.66175 5.76584 9.23091 6.51751 8.56175 6.88418C8.52508 6.91168 8.48841 6.93001 8.45175 6.94834C8.44258 6.94834 8.44258 6.95751 8.43341 6.95751C8.36925 6.98501 8.30508 7.01251 8.23175 7.04001C8.21341 7.04918 8.19508 7.04918 8.17675 7.05834C8.06675 7.09501 7.94758 7.12251 7.81925 7.13168H7.81008C7.67258 7.15001 7.52591 7.15001 7.38841 7.13168H7.37925C7.25091 7.12251 7.13175 7.09501 7.02175 7.05834C6.93008 7.03084 6.83841 6.99418 6.74675 6.94834C6.03175 6.62751 5.53675 5.91251 5.53675 5.07834V4.86751C5.53675 4.16168 4.78508 3.74001 4.18925 4.04251C4.18008 4.05168 4.17091 4.05168 4.16175 4.06084H4.15258C4.08841 4.10668 4.03341 4.15251 3.96925 4.19834C3.86841 4.28084 3.76758 4.36334 3.67591 4.45501C3.61175 4.51918 3.54758 4.58334 3.49258 4.64751C3.41925 4.72084 3.35508 4.79418 3.29091 4.87668C3.24508 4.93168 3.19008 4.98668 3.15341 5.05084C3.10758 5.10584 3.07091 5.17001 3.03425 5.22501C3.02508 5.23418 3.01591 5.24334 3.00675 5.26168C2.92425 5.38084 2.85091 5.51834 2.78675 5.64668C2.76841 5.66501 2.75925 5.67418 2.75925 5.69251C2.70425 5.80251 2.64925 5.91251 2.61258 6.03168C2.58508 6.07751 2.57591 6.11418 2.55758 6.16001C2.53925 6.19668 2.53008 6.24251 2.51175 6.27918C2.48425 6.37084 2.45675 6.47168 2.42925 6.57251C2.39258 6.70084 2.36508 6.83834 2.34675 6.97584C2.32841 7.07668 2.31925 7.17751 2.31008 7.28751C2.30091 7.41584 2.29175 7.54418 2.29175 7.67251V15.7025C2.29175 18.1683 4.29008 20.1667 6.75591 20.1667H11.1742C11.6784 20.1667 12.0909 19.7542 12.0909 19.25V16.3717C12.0909 14.2633 13.8417 12.5492 15.9959 12.5492C16.4817 12.54 17.6642 12.54 18.7917 12.54C19.2959 12.54 19.7084 12.1275 19.7084 11.6233V7.67251C19.7084 6.21501 19.0117 4.94084 17.9392 4.12501ZM10.2026 14.5842C10.1201 14.8592 9.86341 15.0517 9.56091 15.0517H6.22425C6.17841 15.0517 6.14175 15.0517 6.10508 15.0333C5.77508 14.9875 5.53675 14.7033 5.53675 14.3642C5.53675 13.9792 5.83925 13.6675 6.22425 13.6675H9.56091C9.93675 13.6675 10.2484 13.9792 10.2484 14.3642C10.2484 14.4375 10.2392 14.52 10.2026 14.5842ZM12.7509 11.1833C12.6684 11.4583 12.4117 11.6508 12.1092 11.6508H6.22425C6.17841 11.6508 6.14175 11.6508 6.10508 11.6325C5.77508 11.5867 5.53675 11.3025 5.53675 10.9633C5.53675 10.5783 5.83925 10.2667 6.22425 10.2667H12.1092C12.4942 10.2667 12.7967 10.5783 12.7967 10.9633C12.7967 11.0367 12.7876 11.1192 12.7509 11.1833Z" fill="#298091"/>
</svg>
